<svg width="126" height="104" viewBox="0 0 126 104" fill="none" xmlns="http://www.w3.org/2000/svg">
<g clip-path="url(#clip0_38_136)">
<path d="M64.7111 67.9431C52.0997 68.0573 43.117 62.9888 36.2822 53.6846C35.5573 52.6974 35.5084 51.9093 36.2577 50.893C42.9925 41.7634 51.7617 36.7353 63.268 36.5942C74.4319 36.4577 83.2612 40.9015 90.1761 49.5273C92.3417 52.2295 92.3284 52.2743 90.2072 54.9898C84.5197 62.2702 75.6014 68.2655 64.7111 67.9431ZM52.4644 52.2989C52.4755 58.5919 57.5849 63.7029 63.8106 63.6515C70.0006 63.6 75.01 58.4957 75.0056 52.2474C75.0011 46.0148 69.9384 40.9105 63.7594 40.9082C57.4982 40.906 52.451 45.9946 52.4644 52.2989Z" fill="#D36135"/>
<path d="M63.835 43.9417C68.4131 44.0089 72.0706 47.7453 72.0373 52.3257C72.0039 56.9868 68.1796 60.7053 63.5148 60.6202C58.999 60.5374 55.3726 56.7204 55.4326 52.1153C55.4927 47.5528 59.2725 43.8745 63.835 43.9417Z" fill="#D36135"/>
<path d="M78.1205 103.554L63.0411 78.924L48.0262 103.593L48.4287 75.9443L21.365 91.9848L37.1536 67.6543L4.2423 71.3907L31.804 55.948L0.58252 46.5252L33.6028 43.5119L11.2239 23.088L42.1364 33.1913L33.7295 6.44529L55.4525 27.3527L62.9411 0.414162L70.5007 27.3348L92.1704 6.37141L83.8303 33.1376L114.716 22.9537L92.3927 43.4358L125.417 46.364L94.2204 55.8674L121.822 71.2385L88.8997 67.5871L104.753 91.8773L77.6469 75.9085L78.1205 103.554Z" stroke="#D36135" stroke-miterlimit="10"/>
</g>
<defs>
<clipPath id="clip0_38_136">
<rect width="126" height="104" fill="white"/>
</clipPath>
</defs>
</svg>
