<svg width="151" height="23" viewBox="0 0 151 23" fill="none" xmlns="http://www.w3.org/2000/svg">
<rect width="151" height="23" rx="11.5" fill="#D6FF6F"/>
<g clip-path="url(#clip0_29_2)">
<path d="M136.99 11.659C136.984 11.6902 136.978 11.7203 136.97 11.7505C136.959 11.7963 136.943 11.841 136.925 11.8848C136.873 12.0026 136.797 12.1136 136.696 12.2089L129.759 18.7166C129.557 18.9055 129.294 18.9999 129.031 18.9999C128.768 18.9999 128.501 18.9045 128.3 18.7127C127.898 18.3322 127.9 17.7161 128.304 17.3365L134.507 11.5169L128.302 5.66135C127.899 5.28175 127.899 4.66466 128.302 4.28506C128.704 3.90449 129.357 3.90449 129.761 4.28506L136.662 10.7976C136.674 10.8093 136.687 10.821 136.7 10.8327C136.827 10.9534 136.914 11.0984 136.961 11.2512C136.968 11.2784 136.975 11.3057 136.981 11.333C137.003 11.441 137.005 11.551 136.99 11.659Z" fill="black"/>
</g>
<path d="M12 11.75H135" stroke="black" stroke-width="2.5" stroke-linecap="round"/>
<defs>
<clipPath id="clip0_29_2">
<rect width="9" height="15" fill="white" transform="translate(128 4)"/>
</clipPath>
</defs>
</svg>
